<?xml version="1.0" encoding="UTF-8"?>
<svg xmlns="http://www.w3.org/2000/svg" xmlns:xlink="http://www.w3.org/1999/xlink" width="1920px" height="1024px" viewBox="0 0 1024 1024" version="1.1">
<g id="surface1">
<path style=" stroke:none;fill-rule:nonzero;fill:rgb(13.72549%,12.156863%,12.54902%);fill-opacity:1;" d="M 821.761719 277.441406 C 818.289062 274.480469 814.222656 272.300781 809.839844 271.039062 C 805.261719 269.445312 800.550781 268.265625 795.761719 267.519531 C 785.996094 265.894531 776.132812 264.960938 766.238281 264.71875 C 746.304688 264.25 726.363281 265.183594 706.558594 267.519531 C 703.359375 268.078125 701.761719 246.960938 705.28125 247.121094 C 726.070312 246.96875 746.84375 248.308594 767.441406 251.121094 C 777.820312 252.503906 788.089844 254.644531 798.160156 257.519531 C 803.3125 258.957031 808.339844 260.800781 813.199219 263.039062 C 818.355469 265.285156 822.988281 268.582031 826.800781 272.71875 C 830.238281 277.039062 824.398438 280 821.761719 277.441406 Z M 821.761719 277.441406 "/>
<path style=" stroke:none;fill-rule:nonzero;fill:rgb(13.72549%,12.156863%,12.54902%);fill-opacity:1;" d="M 195.359375 590 L 190.878906 478 L 188.878906 437.121094 C 187.359375 389.121094 186.320312 341.121094 185.441406 293.121094 C 185.441406 271.839844 184.238281 250.398438 183.519531 229.121094 C 181.40625 201.953125 181.566406 174.660156 184 147.519531 C 185.039062 139.039062 187.519531 140.160156 191.121094 147.519531 C 193.398438 152.308594 195.402344 157.222656 197.121094 162.238281 C 199.132812 169.085938 200.289062 176.152344 200.558594 183.28125 C 202.800781 238.558594 203.921875 293.839844 203.839844 349.761719 C 203.839844 383.121094 206.160156 417.839844 207.519531 452 L 212.238281 564.640625 L 216 633.839844 C 217.921875 668.800781 219.679688 704 222.238281 738.640625 C 224.320312 765.601562 227.441406 792 230.238281 818.640625 C 230.960938 824.480469 231.601562 830.160156 232.238281 836.078125 C 233.679688 858 232.878906 865.039062 228.71875 870.078125 C 227.839844 871.28125 227.121094 872.800781 226.398438 873.519531 C 224.320312 876.238281 218.960938 867.199219 216.480469 851.28125 C 208.480469 803.839844 205.199219 753.519531 201.601562 703.039062 C 199.039062 665.519531 197.121094 627.761719 195.121094 590.160156 Z M 195.359375 590 "/>
<path style=" stroke:none;fill-rule:nonzero;fill:rgb(13.72549%,12.156863%,12.54902%);fill-opacity:1;" d="M 798.640625 662.078125 C 806.640625 564 814.640625 465.921875 821.199219 367.921875 C 822.320312 350.078125 823.199219 332.160156 823.761719 314.398438 C 823.761719 305.519531 824.320312 296.558594 824.320312 287.839844 C 824.320312 283.441406 824.320312 279.121094 824.320312 274.878906 C 824.320312 272.800781 824.320312 270.558594 824.320312 269.039062 C 824.457031 268.488281 824.457031 267.910156 824.320312 267.359375 L 823.519531 266.640625 L 821.839844 265.679688 C 819.757812 264.601562 817.589844 263.691406 815.359375 262.960938 C 810.375 261.277344 805.265625 259.992188 800.078125 259.121094 C 788.847656 257.390625 777.519531 256.347656 766.160156 256 C 754.878906 255.441406 743.519531 255.28125 732.078125 255.441406 L 714.960938 255.921875 C 706.480469 255.921875 695.761719 257.039062 686.398438 257.679688 L 688.398438 242.640625 L 689.199219 235.199219 L 689.839844 228.878906 L 691.199219 211.28125 C 692 199.601562 692.558594 187.839844 692.960938 176.078125 C 693.359375 164.320312 693.679688 152.480469 693.679688 140.800781 L 693.679688 124.558594 C 693.757812 123.335938 693.757812 122.105469 693.679688 120.878906 C 693.679688 119.199219 691.921875 119.761719 690.800781 119.679688 L 682.480469 119.679688 L 669.441406 120 L 644.960938 121.441406 L 595.839844 124.398438 C 539.839844 127.441406 483.121094 130 427.199219 129.839844 C 391.046875 130.128906 354.90625 128.339844 318.960938 124.480469 C 300.773438 122.410156 282.757812 119.066406 265.039062 114.480469 C 246.355469 110.222656 228.894531 101.738281 214 89.679688 C 211.984375 87.855469 210.109375 85.875 208.398438 83.761719 C 207.378906 82.144531 206.46875 80.460938 205.679688 78.71875 C 204.480469 75.921875 204.558594 74.480469 205.679688 74.160156 C 206.800781 73.839844 208.640625 74.160156 211.199219 75.839844 L 215.359375 78.320312 L 221.121094 80.960938 C 232.265625 86.046875 243.972656 89.808594 256 92.160156 C 271.121094 95.199219 289.121094 97.921875 308.878906 100.800781 C 340.238281 105.007812 371.808594 107.4375 403.441406 108.078125 C 435.441406 108.960938 467.441406 108.800781 499.441406 108.078125 C 531.441406 107.359375 563.441406 106 595.441406 104.398438 L 643.441406 101.761719 L 667.441406 100.398438 L 679.601562 99.839844 L 697.199219 99.839844 C 704.398438 99.851562 710.589844 104.941406 712 112 C 712.601562 115.84375 713 119.714844 713.199219 123.601562 L 713.199219 130.480469 C 713.199219 139.519531 713.199219 148.398438 713.199219 157.28125 C 713.199219 172.238281 712.078125 187.121094 711.199219 202.238281 C 710.71875 209.761719 710.160156 217.359375 709.679688 224.960938 L 708.960938 232.960938 L 708.480469 236.480469 L 719.519531 236 C 727.519531 236 734.640625 235.519531 742.320312 235.519531 C 757.675781 235.328125 773.03125 235.96875 788.320312 237.441406 C 796.207031 238.191406 804.035156 239.449219 811.761719 241.199219 C 815.839844 242.078125 819.851562 243.253906 823.761719 244.71875 C 828.480469 246.3125 832.914062 248.664062 836.878906 251.679688 C 838.136719 252.625 839.335938 253.640625 840.480469 254.71875 L 842.160156 256.320312 C 842.800781 256.800781 842.640625 257.761719 842.878906 258.480469 C 843.636719 261.417969 844.148438 264.414062 844.398438 267.441406 C 844.398438 271.601562 844.878906 275.441406 844.960938 279.359375 C 844.960938 287.359375 844.960938 294.71875 844.960938 302.320312 C 843.28125 352.238281 839.519531 401.601562 836 451.121094 L 824 599.441406 C 819.199219 660.320312 814.320312 721.121094 810.238281 781.921875 C 808.71875 804.878906 807.199219 827.921875 806 850.960938 C 805.441406 862.480469 804.878906 874 804.558594 885.441406 L 804.558594 908.960938 C 804.558594 909.441406 803.839844 909.679688 803.519531 910 L 798.558594 913.839844 C 796.992188 915.050781 795.304688 916.097656 793.519531 916.960938 C 792.078125 917.679688 790.640625 918.558594 789.199219 919.121094 C 765.839844 928.640625 742.238281 929.519531 718.960938 930.71875 C 695.679688 931.921875 672.480469 930.71875 649.519531 929.679688 C 613.679688 927.761719 578.480469 924.71875 543.359375 921.679688 L 490.878906 916.398438 C 482.238281 915.519531 473.28125 914.558594 465.121094 914.238281 C 456.960938 913.921875 447.921875 914.238281 439.441406 914.878906 C 424.160156 915.679688 409.359375 917.199219 394.238281 919.28125 C 366.238281 923.359375 348.238281 928.238281 335.28125 931.039062 C 326.398438 933.496094 317.210938 934.65625 308 934.480469 C 304.976562 934.527344 301.953125 934.34375 298.960938 933.921875 C 295.601562 932.960938 298.960938 929.519531 308.558594 924.320312 C 323.289062 916.875 338.796875 911.078125 354.800781 907.039062 C 386.480469 898.933594 418.988281 894.503906 451.679688 893.839844 C 455.839844 893.839844 459.679688 893.839844 464.238281 893.839844 C 468.800781 893.839844 473.039062 894.320312 477.28125 894.640625 L 501.761719 897.039062 L 550.480469 902.078125 C 582.960938 905.359375 615.679688 908.320312 648.398438 910.078125 C 680.828125 912.3125 713.378906 912.019531 745.761719 909.199219 C 756.882812 908.175781 767.84375 905.8125 778.398438 902.160156 L 781.839844 900.800781 L 783.28125 900 L 784.238281 899.441406 L 784.238281 886.480469 C 784.878906 861.359375 786.320312 836.480469 787.839844 811.601562 C 790.960938 761.921875 794.640625 712.320312 798.398438 662.800781 Z M 798.640625 662.078125 "/>
<path style=" stroke:none;fill-rule:nonzero;fill:rgb(13.72549%,12.156863%,12.54902%);fill-opacity:1;" d="M 843.921875 258.878906 C 814.878906 202.878906 763.039062 145.441406 713.28125 106.878906 C 708.960938 103.519531 691.121094 111.921875 693.519531 113.761719 C 746.558594 154.496094 790.667969 205.683594 823.121094 264.160156 C 825.519531 268.878906 845.359375 261.28125 843.921875 258.558594 Z M 843.921875 258.878906 "/>
<path style=" stroke:none;fill-rule:nonzero;fill:rgb(13.72549%,12.156863%,12.54902%);fill-opacity:1;" d="M 302.238281 344 C 306.066406 340.933594 310.476562 338.675781 315.199219 337.359375 C 319.359375 336.1875 323.6875 335.726562 328 336 C 356.160156 336.480469 384.71875 336 413.199219 335.359375 L 486.71875 335.359375 C 528.960938 334.71875 571.199219 333.441406 613.441406 332.320312 L 650.878906 331.359375 C 662.800781 330.878906 674.878906 330.398438 686.800781 330.160156 C 688.820312 329.917969 690.859375 329.917969 692.878906 330.160156 C 695.054688 330.386719 696.863281 331.929688 697.429688 334.039062 C 698 336.152344 697.207031 338.394531 695.441406 339.679688 C 694.558594 340.558594 693.601562 341.839844 692.71875 341.921875 C 683.441406 341.921875 676.160156 348.640625 666.398438 348.71875 C 648.320312 348.71875 630.238281 350.558594 612.238281 351.519531 C 604.960938 351.519531 597.761719 351.519531 590.480469 351.519531 L 562.71875 350.558594 C 550.078125 350.558594 490.71875 351.28125 433.519531 351.441406 C 404.960938 351.441406 377.039062 351.441406 355.839844 350.640625 C 345.199219 350.640625 336.238281 349.839844 329.839844 349.601562 C 323.441406 349.359375 319.359375 348.558594 318.640625 348.480469 C 313.0625 347.429688 307.578125 345.933594 302.238281 344 Z M 302.238281 344 "/>
<path style=" stroke:none;fill-rule:nonzero;fill:rgb(13.72549%,12.156863%,12.54902%);fill-opacity:1;" d="M 316.800781 456 C 320.011719 452.835938 323.820312 450.332031 328 448.640625 C 331.421875 447.339844 335.0625 446.714844 338.71875 446.800781 C 362.71875 446.238281 386.71875 444.800781 411.199219 443.839844 C 432.078125 442.960938 453.039062 443.039062 473.921875 442.398438 C 509.921875 441.359375 545.921875 440.238281 582.238281 440.320312 L 614.238281 440.878906 C 624.558594 440.878906 634.800781 440.878906 645.199219 441.921875 C 646.949219 441.835938 648.699219 441.996094 650.398438 442.398438 C 652.363281 443.0625 653.78125 444.785156 654.054688 446.839844 C 654.324219 448.898438 653.40625 450.929688 651.679688 452.078125 C 650.878906 452.878906 650 454.160156 649.199219 454.078125 C 641.199219 454.078125 634.640625 459.441406 626.398438 459.121094 C 611.121094 458.480469 595.820312 458.640625 580.558594 459.601562 C 574.480469 459.601562 568.320312 459.601562 562.160156 459.601562 L 538.640625 458.160156 C 527.921875 457.761719 477.441406 458.160156 428.878906 459.761719 C 404.878906 460.398438 380.878906 460.878906 362.640625 460.878906 C 351.964844 461.105469 341.285156 460.785156 330.640625 459.921875 C 325.914062 459.046875 321.28125 457.734375 316.800781 456 Z M 316.800781 456 "/>
<path style=" stroke:none;fill-rule:nonzero;fill:rgb(13.72549%,12.156863%,12.54902%);fill-opacity:1;" d="M 326.800781 572.878906 C 330.28125 569.847656 334.296875 567.488281 338.640625 565.921875 C 342.300781 564.6875 346.136719 564.066406 350 564.078125 C 375.519531 563.679688 401.28125 562.238281 427.039062 561.359375 C 449.199219 560.640625 471.441406 560.800781 493.679688 560.238281 C 531.921875 559.359375 570.238281 558.320312 608.640625 558.398438 C 620 558.398438 631.359375 558.878906 642.71875 558.960938 C 654.078125 559.039062 664.558594 558.960938 675.601562 560.078125 C 677.453125 559.992188 679.308594 560.15625 681.121094 560.558594 C 683.148438 561.164062 684.644531 562.886719 684.953125 564.980469 C 685.261719 567.074219 684.328125 569.15625 682.558594 570.320312 C 681.679688 571.039062 680.71875 572.320312 679.921875 572.238281 C 671.921875 572.238281 664.558594 577.601562 655.921875 577.28125 C 639.691406 576.441406 623.429688 576.441406 607.199219 577.28125 C 600.640625 577.28125 594.160156 577.28125 587.601562 577.28125 L 562.480469 576 C 551.039062 576 497.359375 576 445.761719 577.28125 C 420 577.761719 394.71875 578.160156 375.519531 578.078125 C 364.257812 578.296875 352.988281 577.953125 341.761719 577.039062 C 336.652344 576.132812 331.644531 574.738281 326.800781 572.878906 Z M 326.800781 572.878906 "/>
<path style=" stroke:none;fill-rule:nonzero;fill:rgb(13.72549%,12.156863%,12.54902%);fill-opacity:1;" d="M 412 696 C 416.320312 688 419.039062 686.558594 422.160156 686.398438 C 432.238281 686.398438 442.558594 685.359375 452.800781 685.121094 C 461.679688 685.121094 470.558594 685.601562 479.441406 685.121094 C 494.71875 685.121094 510 684.398438 525.359375 683.921875 C 529.839844 683.921875 534.398438 683.921875 538.878906 683.441406 C 543.359375 682.960938 547.519531 682.640625 551.839844 682.480469 C 552.558594 682.480469 553.359375 682 554 682.480469 C 555.921875 683.761719 556.480469 688.480469 555.199219 692.078125 C 555.199219 692.878906 554.558594 694.238281 554.238281 694.238281 C 550.878906 694.238281 548.320312 700.960938 544.800781 701.039062 C 538.199219 701.257812 531.621094 701.953125 525.121094 703.121094 C 522.460938 703.40625 519.777344 703.40625 517.121094 703.121094 C 513.761719 703.121094 510.398438 702 506.960938 701.761719 C 503.519531 701.519531 480.71875 701.761719 460 701.039062 C 449.601562 701.039062 439.359375 700.558594 431.601562 700.160156 C 426.992188 700.082031 422.394531 699.679688 417.839844 698.960938 C 415.777344 698.21875 413.816406 697.222656 412 696 Z M 412 696 "/>
<path style=" stroke:none;fill-rule:nonzero;fill:rgb(13.72549%,12.156863%,12.54902%);fill-opacity:1;" d="M 347.28125 919.121094 C 415.804688 903.25 486.878906 901.777344 556 914.800781 C 673.199219 936.238281 797.839844 906.078125 797.839844 906.078125 C 797.839844 906.078125 768.480469 975.839844 567.28125 939.601562 C 451.519531 918.800781 360.238281 951.28125 339.679688 951.28125 C 328 951.28125 347.28125 919.121094 347.28125 919.121094 Z M 347.28125 919.121094 "/>
</g>
</svg>
